<svg width="147" height="206" viewBox="0 0 147 206" fill="none" xmlns="http://www.w3.org/2000/svg">
<path fill-rule="evenodd" clip-rule="evenodd" d="M20.2453 198.488V93.6001C23.5294 93.6001 23.3889 89.203 23.3889 89.203V86.1833H27.6213V205.905H0V86.1833H7.37598V93.5965L7.37599 93.6001V198.488H20.2453Z" fill="#DA4167"/>
<path d="M26.529 74.0445C26.529 74.0445 26.529 80.2216 23.3889 83.6051V89.2066C23.3889 89.2066 23.5329 93.6037 20.2453 93.6037H7.37599V74.048H26.529M33.905 66.6277H0V101.017H20.2453C23.0482 101.017 25.6404 99.9291 27.5406 97.9549C30.5717 94.8045 30.7895 90.5769 30.7614 89.1218V86.0138C33.7258 81.0905 33.9015 75.3265 33.9015 74.0445V66.6277H33.905Z" fill="#DA4167"/>
<path fill-rule="evenodd" clip-rule="evenodd" d="M123.471 86.2786H119.238V206H146.86V86.2786H139.484V93.6919L139.484 93.6954V198.583H126.614V93.6954C123.33 93.6954 123.471 89.2983 123.471 89.2983V86.2786Z" fill="#DA4167"/>
<path d="M139.484 74.1397V93.6954H126.614C123.33 93.6954 123.471 89.2982 123.471 89.2982V83.6968C120.331 80.3168 120.331 74.1362 120.331 74.1362H139.484M146.86 66.7229H112.955V74.1397C112.955 75.4182 113.13 81.1821 116.095 86.109V89.217C116.07 90.6756 116.284 94.9032 119.316 98.0501C121.216 100.024 123.808 101.112 126.611 101.112H146.856V66.7229H146.86Z" fill="#DA4167"/>
<path fill-rule="evenodd" clip-rule="evenodd" d="M26.5308 27.105L26.5291 27.1067L26.529 27.1032C14.6888 39.1184 7.37599 55.6508 7.37599 73.9032V74.041V81.4613C3.30163 81.4613 0 78.1414 0 74.0445V73.9068C0 63.9894 1.92127 54.3653 5.71112 45.292C9.37102 36.5331 14.6115 28.6572 21.2885 21.8832C22.6689 20.4811 24.548 19.6899 26.5114 19.6864H26.529L26.5325 19.6899C28.4889 19.6899 30.3645 20.4705 31.7484 21.862L32.013 22.1281C30.0944 23.6844 28.2641 25.3463 26.5308 27.105ZM25.8138 78.9107C27.0233 77.5127 27.6705 75.7074 27.6213 73.8467V73.769C27.6213 61.5807 32.3139 50.0953 40.8349 41.4282C43.5771 38.6403 43.6697 34.2099 41.1252 31.3112C39.1679 32.8156 37.3175 34.4537 35.5874 36.2117C26.104 45.8607 20.2418 59.1226 20.2418 73.7655V74.041L26.529 74.041C26.529 74.041 26.529 76.3461 25.8138 78.9107Z" fill="#DA4167"/>
<path d="M21.6327 32.6692L30.3716 41.4564C30.5038 41.5894 30.6406 41.7169 30.7815 41.8386C32.2563 39.8531 33.8651 37.9741 35.5944 36.2152L35.5909 36.2117L35.5874 36.2152L26.5325 27.1102C24.7993 28.8693 23.1631 30.7252 21.6327 32.6692Z" fill="#DA4167"/>
<path fill-rule="evenodd" clip-rule="evenodd" d="M73.2331 20.3574L73.233 20.3538H73.363C75.8155 20.3538 78.2291 20.521 80.5932 20.8446C80.3424 24.7057 77.154 27.7605 73.2507 27.7706C60.9819 27.7989 49.4683 32.6516 40.8314 41.4282C39.451 42.8303 37.5719 43.6214 35.6085 43.6285H35.5874C33.8181 43.6285 32.1147 42.99 30.7815 41.8386C32.2563 39.8531 33.8651 37.9741 35.5944 36.2152L35.5909 36.2117C45.197 26.4518 58.511 20.3927 73.2331 20.3574ZM26.5325 27.1102C24.7993 28.8693 23.1631 30.7252 21.6327 32.6692L21.3131 32.3479C18.44 29.4624 18.4295 24.7827 21.2885 21.8831C28.0147 15.0596 35.8579 9.69129 44.6037 5.92991C53.6586 2.03079 63.2825 0.0388499 73.205 0H73.2331C75.186 0 77.0581 0.78053 78.4384 2.165C79.8293 3.55653 80.6091 5.44959 80.6091 7.42034V7.79328C78.2725 7.5421 75.8995 7.41327 73.4965 7.41327L73.5 7.4168H73.233L73.2331 7.42034C54.9722 7.49097 38.457 15.0067 26.529 27.1067L26.5325 27.1102ZM26.5325 27.1102L35.5874 36.2152L35.5909 36.2117L26.536 27.1067L26.5325 27.1102Z" fill="#DA4167"/>
<path fill-rule="evenodd" clip-rule="evenodd" d="M120.341 26.976C108.367 14.8937 91.803 7.41681 73.5 7.41681L73.5035 7.42034H73.2366V20.3574H73.3665C88.1457 20.3574 101.513 26.4243 111.144 36.2205L111.142 36.2223C112.872 37.9822 114.481 39.8624 115.956 41.8491C114.622 43.0028 112.917 43.6426 111.146 43.6426H111.125C109.161 43.6355 107.282 42.8444 105.902 41.4388C97.2402 32.6269 85.6845 27.7742 73.3665 27.7742H73.2366C69.1622 27.7742 65.8606 24.4543 65.8606 20.3574V7.42034C65.8606 3.41526 69.0217 0.130677 73.0048 0.00706362C73.1663 0 73.3349 0 73.5 0C83.4436 0 93.0885 1.96369 102.179 5.84162C110.945 9.58181 118.817 14.9325 125.567 21.7454C128.437 24.6415 128.434 29.3317 125.557 32.2243L125.261 32.5218C123.725 30.582 122.083 28.7304 120.345 26.976L120.341 26.976ZM120.341 26.976L111.146 36.2223L111.144 36.2205L120.337 26.976L120.341 26.976Z" fill="#DA4167"/>
<path fill-rule="evenodd" clip-rule="evenodd" d="M120.337 26.976C132.255 39.0018 139.62 55.5907 139.62 73.9067V74.0445H126.474V73.769C126.474 59.1331 120.618 45.8712 111.135 36.2223L120.33 26.976H120.337ZM120.337 19.5592C118.381 19.5592 116.505 20.3397 115.122 21.7313L105.926 30.9775C103.056 33.863 103.042 38.5356 105.895 41.4352C114.412 50.1023 119.105 61.5842 119.105 73.7654V73.8431C119.053 75.7814 119.758 77.6597 121.066 79.0799C120.33 76.4859 120.33 74.1362 120.33 74.1362H126.611H139.483V81.4577H139.624C143.698 81.4577 147 78.1378 147 74.0409V73.9032C147 63.9541 145.065 54.2946 141.247 45.1966C137.562 36.413 132.283 28.5194 125.564 21.7383C124.18 20.3433 122.304 19.5592 120.344 19.5557H120.337V19.5592Z" fill="#DA4167"/>
</svg>
