<svg width="1645" height="368" viewBox="0 0 1645 368" fill="none" xmlns="http://www.w3.org/2000/svg">
<path fill-rule="evenodd" clip-rule="evenodd" d="M195.201 0.37414C200.244 0.905007 209.799 2.23218 216.435 3.02848C223.07 3.55935 236.872 7.27542 246.958 11.2569C257.044 14.973 267.396 19.4854 269.519 20.8125C271.642 22.4051 277.747 25.8558 282.79 28.5101C287.833 30.899 297.388 38.0657 304.024 44.4361C310.659 50.5411 318.091 60.0967 320.745 65.6709C323.4 71.5104 324.727 78.6771 323.931 83.4549C322.869 89.5599 308.005 106.017 262.087 151.937C228.91 185.116 198.652 213.783 194.67 215.641C190.423 217.499 184.053 218.03 179.807 217.234C175.825 216.172 169.721 213.252 166.005 210.863C162.289 208.474 157.246 201.573 154.326 195.999C151.141 189.363 150.079 182.727 151.141 177.684C152.203 172.11 164.147 158.042 191.751 129.906C213.25 107.875 233.422 88.2327 236.872 86.1093C241.915 82.924 242.446 81.5969 239.792 79.208C237.934 77.6154 227.317 73.6339 216.435 70.1832C200.244 65.4054 192.547 64.3437 175.294 65.4054C163.616 66.2017 151.672 68.0598 148.752 69.3869C145.833 70.9795 138.135 74.4302 131.5 77.6154C124.864 80.5352 111.593 90.0908 101.507 99.1155C91.6866 107.875 83.724 116.9 83.724 118.492C83.724 120.35 79.7427 129.64 75.2305 139.196C67.7987 154.857 67.0024 158.838 67.0024 182.993C66.737 201.838 68.3295 213.517 71.5146 222.808C74.1688 229.974 77.3539 238.468 78.9464 241.388C80.5389 244.308 87.1745 253.067 94.0754 261.03C100.711 268.993 111.062 278.549 116.902 282.265C122.741 286.246 138.135 292.617 151.406 296.864C170.517 302.969 178.745 304.296 192.547 303.234C205.287 302.438 215.373 299.518 231.033 292.086C246.427 284.919 256.779 277.487 268.457 265.808C277.216 256.783 285.444 246.431 286.506 242.715C287.833 238.999 290.222 234.487 291.815 232.363C293.407 230.24 296.858 222.542 299.246 215.11C301.901 207.678 303.759 198.919 304.024 195.468C304.024 192.283 306.678 186.709 310.129 183.258C313.314 179.807 319.153 173.172 323.4 168.659C327.381 164.147 332.424 160.431 334.547 160.431C336.671 160.431 345.164 167.067 367.725 189.628L365.071 210.067C363.744 221.481 360.293 237.407 357.374 245.37C354.454 253.333 350.207 263.95 348.084 268.462C345.695 273.24 342.775 277.222 341.183 277.222C339.59 277.222 337.998 279.876 337.467 283.061C336.671 286.512 330.301 295.537 323.4 303.5C316.499 311.463 302.962 323.673 293.407 330.839C283.852 338.006 268.457 347.562 258.902 352.074C246.958 357.648 233.422 361.364 215.108 364.018C200.509 366.142 186.708 367.735 184.584 368C182.461 368 171.579 366.673 160.696 364.815C149.814 363.222 138.932 361.895 136.808 361.895C134.685 361.895 130.438 360.833 127.519 359.506C124.599 358.444 113.186 352.87 102.303 347.296C91.4212 341.987 78.9464 334.821 74.6997 331.901C70.4529 328.716 60.6323 319.691 52.6697 311.728C44.707 303.765 32.763 288.104 26.3929 277.222C19.7574 266.339 14.7144 255.721 14.7144 253.863C14.7144 252.271 13.9181 250.147 12.8564 249.616C11.5293 249.086 9.93679 245.104 8.8751 241.123C7.81341 236.876 5.42462 224.931 3.30125 214.845C0.912452 204.758 -0.414656 190.956 0.116187 184.32C0.381609 177.684 1.70872 165.209 2.7704 156.449C3.83209 147.69 6.22088 137.603 8.07884 133.887C9.93679 130.171 13.1218 121.147 14.9798 113.98C16.8377 106.548 23.2079 93.5414 29.0471 85.0475C35.1518 76.2882 48.4229 60.893 58.5089 50.8066C70.1875 39.3929 83.4586 29.3064 94.3409 23.9977C103.896 19.2199 118.76 12.8495 127.519 9.39889C136.277 6.21368 152.999 2.49761 164.678 1.43587C176.356 0.108706 190.158 -0.422162 195.201 0.37414Z" fill="#44B69C"/>
<path d="M1519.69 221.186H1598.23C1597.76 211.428 1594.19 203.217 1587.52 196.553C1581.1 189.889 1571.58 186.557 1558.96 186.557C1547.54 186.557 1538.26 190.127 1531.12 197.267C1523.98 204.407 1520.17 212.38 1519.69 221.186ZM1602.87 266.882L1642.5 278.663C1637.74 294.847 1628.34 308.175 1614.3 318.647C1600.49 329.119 1583.24 334.355 1562.53 334.355C1537.3 334.355 1515.88 325.906 1498.27 309.008C1480.66 291.872 1471.85 269.024 1471.85 240.464C1471.85 213.332 1480.42 191.198 1497.56 174.062C1514.69 156.688 1534.92 148.001 1558.25 148.001C1585.38 148.001 1606.56 156.093 1621.79 172.277C1637.26 188.461 1645 210.714 1645 239.036C1645 240.94 1644.88 243.082 1644.64 245.462C1644.64 247.842 1644.64 249.746 1644.64 251.174L1644.28 253.673H1518.62C1519.1 265.097 1523.62 274.617 1532.19 282.233C1540.75 289.849 1550.99 293.657 1562.89 293.657C1583.12 293.657 1596.45 284.732 1602.87 266.882Z" fill="#44B69C"/>
<path d="M1369.42 191.912C1356.81 191.912 1346.22 196.315 1337.65 205.121C1329.08 213.927 1324.8 225.946 1324.8 241.178C1324.8 256.41 1329.08 268.548 1337.65 277.592C1346.46 286.398 1357.17 290.801 1369.78 290.801C1380.97 290.801 1389.89 287.945 1396.55 282.233C1403.22 276.283 1407.74 269.262 1410.12 261.17L1451.89 275.093C1447.61 291.277 1438.32 305.2 1424.04 316.862C1409.76 328.524 1391.68 334.355 1369.78 334.355C1343.6 334.355 1321.58 325.549 1303.73 307.937C1286.12 290.087 1277.32 267.834 1277.32 241.178C1277.32 214.284 1286 192.031 1303.38 174.419C1320.99 156.807 1342.65 148.001 1368.35 148.001C1390.72 148.001 1409.05 153.832 1423.33 165.494C1437.61 176.918 1446.77 190.841 1450.82 207.263L1408.34 221.543C1402.62 201.789 1389.65 191.912 1369.42 191.912Z" fill="#44B69C"/>
<path d="M1239.69 329H1192.21V153.356H1239.69V329ZM1186.5 95.8791C1186.5 87.7871 1189.35 80.8851 1195.07 75.1731C1200.78 69.223 1207.68 66.248 1215.77 66.248C1223.86 66.248 1230.77 69.1041 1236.48 74.8161C1242.19 80.5281 1245.05 87.5491 1245.05 95.8791C1245.05 103.733 1242.19 110.516 1236.48 116.228C1230.77 121.94 1223.86 124.796 1215.77 124.796C1207.68 124.796 1200.78 121.94 1195.07 116.228C1189.35 110.516 1186.5 103.733 1186.5 95.8791Z" fill="#44B69C"/>
<path d="M1030.85 277.949C1039.66 286.755 1050.25 291.158 1062.63 291.158C1075 291.158 1085.47 286.755 1094.04 277.949C1102.85 269.143 1107.25 256.886 1107.25 241.178C1107.25 225.47 1102.85 213.213 1094.04 204.407C1085.47 195.601 1075 191.198 1062.63 191.198C1050.25 191.198 1039.66 195.601 1030.85 204.407C1022.28 213.213 1018 225.47 1018 241.178C1018 256.886 1022.28 269.143 1030.85 277.949ZM996.581 174.419C1014.19 156.807 1036.21 148.001 1062.63 148.001C1089.04 148.001 1110.94 156.807 1128.31 174.419C1145.93 192.031 1154.73 214.284 1154.73 241.178C1154.73 268.072 1145.93 290.325 1128.31 307.937C1110.94 325.549 1089.04 334.355 1062.63 334.355C1036.21 334.355 1014.19 325.549 996.581 307.937C979.207 290.325 970.52 268.072 970.52 241.178C970.52 214.284 979.207 192.031 996.581 174.419Z" fill="#44B69C"/>
<path d="M960.068 153.356L891.881 329H844.4L772.643 153.356H824.765L868.319 271.166L910.088 153.356H960.068Z" fill="#44B69C"/>
<path d="M636.557 227.969V329H589.076V153.356H635.129V175.133C640.127 166.565 647.267 160.02 656.549 155.498C665.831 150.976 675.589 148.715 685.823 148.715C706.529 148.715 722.237 155.26 732.947 168.35C743.895 181.202 749.369 197.862 749.369 218.33V329H701.888V226.541C701.888 216.069 699.151 207.62 693.677 201.194C688.441 194.768 680.349 191.555 669.401 191.555C659.405 191.555 651.432 195.006 645.482 201.908C639.532 208.81 636.557 217.497 636.557 227.969Z" fill="#44B69C"/>
<path d="M534.898 329H484.918V75.8867H534.898V329Z" fill="#44B69C"/>
</svg>
