<svg width="24" height="24" viewBox="0 0 24 24" fill="none" xmlns="http://www.w3.org/2000/svg">
<path d="M4 11C3.44772 11 3 10.5523 3 10V4C3 3.44772 3.44772 3 4 3H10C10.5523 3 11 3.44772 11 4V10C11 10.5523 10.5523 11 10 11H4ZM4 21C3.44772 21 3 20.5523 3 20V14C3 13.4477 3.44772 13 4 13H10C10.5523 13 11 13.4477 11 14V20C11 20.5523 10.5523 21 10 21H4ZM14 11C13.4477 11 13 10.5523 13 10V4C13 3.44772 13.4477 3 14 3H20C20.5523 3 21 3.44772 21 4V10C21 10.5523 20.5523 11 20 11H14ZM14 21C13.4477 21 13 20.5523 13 20V14C13 13.4477 13.4477 13 14 13H20C20.5523 13 21 13.4477 21 14V20C21 20.5523 20.5523 21 20 21H14ZM5 8.5C5 8.77614 5.22386 9 5.5 9H8.5C8.77614 9 9 8.77614 9 8.5V5.5C9 5.22386 8.77614 5 8.5 5H5.5C5.22386 5 5 5.22386 5 5.5V8.5ZM15 8.5C15 8.77614 15.2239 9 15.5 9H18.5C18.7761 9 19 8.77614 19 8.5V5.5C19 5.22386 18.7761 5 18.5 5H15.5C15.2239 5 15 5.22386 15 5.5V8.5ZM15 18.5C15 18.7761 15.2239 19 15.5 19H18.5C18.7761 19 19 18.7761 19 18.5V15.5C19 15.2239 18.7761 15 18.5 15H15.5C15.2239 15 15 15.2239 15 15.5V18.5ZM5 18.5C5 18.7761 5.22386 19 5.5 19H8.5C8.77614 19 9 18.7761 9 18.5V15.5C9 15.2239 8.77614 15 8.5 15H5.5C5.22386 15 5 15.2239 5 15.5V18.5Z" fill="#004A40"/>
</svg>
