<svg width="430" height="59" viewBox="0 0 430 59" fill="none" xmlns="http://www.w3.org/2000/svg">
<path d="M58.1462 36.5899C55.8756 49.7553 45.9783 58.2404 32.1071 58.9136C17.3728 59.6287 5.01864 51.159 1.24723 37.7567C-2.38553 24.8471 2.03808 12.2489 12.9432 4.78532C23.5966 -2.50598 46.6601 -2.12158 54.6108 10.5645C52.3843 12.8093 50.1298 15.0824 47.9101 17.3204C32.8461 7.73065 20.7897 8.37525 13.9412 19.0038C8.03804 28.1654 10.9208 40.05 20.4383 45.7895C29.9452 51.5225 40.404 49.1709 46.4686 39.2991C41.0174 39.2991 35.9661 39.2991 30.5586 39.2991C30.5586 35.6197 30.5586 32.8411 30.5586 30.0605C39.3752 30.2385 48.1919 30.0605 55.7841 30.0605C56.834 32.9625 57.4901 34.7762 58.1462 36.5899Z" fill="#792D0A"/>
<path d="M259.636 57.3752C249.84 57.3752 259.636 57.3752 249.84 57.3752C249.909 56.7998 249.77 55.2409 249.84 54.6655C236.772 60.6429 228.427 59.294 221.631 50.1061C215.639 42.0042 216.189 29.1002 222.852 21.505C229.942 13.4228 238.219 12.6809 250.341 19.3499C250.341 15.9407 250.341 12.7895 250.341 9.63837C250.341 6.62209 250.341 3.60582 250.341 0.12793C253.848 0.12793 257.137 0.12793 260.208 0.12793C260.208 19.2513 260.208 38.2777 259.636 57.3752ZM229.877 43.6199C233.296 48.6445 238.157 50.0801 243.634 48.1998C248.789 46.4298 250.962 41.9525 251.005 36.7781C251.048 31.6128 249.109 26.6125 243.77 25.5108C240.122 24.7582 235.135 25.3912 232.189 27.4574C226.965 31.1212 225.783 37.8411 229.877 43.6199Z" fill="#792C0A"/>
<path d="M344.753 46.4493C343.773 49.3706 343.221 52.016 341.92 54.221C341.087 55.6331 339.111 57.2839 337.719 57.2219C336.016 57.1461 333.528 55.77 332.876 54.2958C330.141 48.1066 327.965 41.6707 325.065 33.9411C322.137 41.4418 319.948 47.7153 317.175 53.7194C316.411 55.3752 313.957 57.0649 312.179 57.1774C310.823 57.2632 308.593 55.157 307.982 53.5568C303.333 41.3955 298.987 29.1186 294.531 16.8341C295.469 16.6138 296.315 16.4175 297.081 16.251C303.873 14.7757 304.403 15.6425 306.98 22.8714C308.775 27.9072 310.554 32.9487 312.824 39.3509C315.65 32.0753 317.812 25.8956 320.507 19.957C321.285 18.2433 323.617 16.1484 325.194 16.1829C326.817 16.2184 329.084 18.3322 329.854 20.0733C332.409 25.8508 334.418 31.8698 337.141 39.1458C339.259 33.2687 340.924 28.6188 342.61 23.9768C345.671 15.5512 345.677 15.5516 355.704 16.23C355.706 16.2301 355.707 16.2302 355.709 16.2304C352.045 26.2845 348.455 36.1357 344.753 46.4493Z" fill="#70A405"/>
<path d="M297.081 16.251C303.873 14.7757 304.403 15.6425 306.98 22.8714L304.07 14.6531L297.081 16.251Z" fill="#70A405"/>
<path d="M342.61 23.9768C345.671 15.5512 345.677 15.5516 355.704 16.23L345.688 15.4831L342.61 23.9768Z" fill="#70A405"/>
<path d="M356.783 30.3411C358.008 21.2334 370.324 9.99363 383.783 14.3411C394.824 18.9936 400.731 26.8821 399.898 39.5647C388.958 39.5647 377.953 39.5647 366.796 39.5647C368.283 49.0592 377.71 52.1144 388.724 45.4656C391.183 46.5955 393.86 47.8259 396.544 49.0592C392.766 56.5019 384.206 59.9797 373.843 58.371C365.35 57.0525 357.94 52.2017 356.783 43.8413C356.267 40.1168 355.558 39.4488 356.783 30.3411ZM384.783 31.8413C387.285 31.6849 389.297 31.4266 389.283 31.3413C388.516 26.7759 383.121 23.2613 377.666 23.654C371.578 24.0922 367.283 27.3413 366.796 32.3413C373.843 32.3413 376.783 32.3413 384.783 31.8413Z" fill="#72A509"/>
<path d="M124.793 26.2309C130.29 39.7445 125.468 52.4974 113.486 57.1209C101.645 61.6902 88.7691 55.7938 84.5867 43.8863C80.9008 33.3921 85.6663 21.9212 95.7773 16.9499C106.039 11.9045 117.383 15.3958 124.793 26.2309ZM97.2062 45.582C98.1964 46.2647 99.1111 47.114 100.19 47.6015C105.101 49.8218 109.62 49.2038 113.466 45.3157C117.036 41.707 117.839 34.5649 115.114 30.1508C112.415 25.7786 108.348 23.8667 103.284 24.6901C98.0742 25.5373 93.6898 30.7242 93.7827 36.3411C93.8755 41.9579 94.7827 43.3411 97.2062 45.582Z" fill="#792C0A"/>
<path d="M212.794 30.6319C212.878 38.8386 212.963 47.0452 212.391 55.74C208.745 56.1456 205.756 56.0629 202.766 55.9803C202.721 48.9284 202.763 41.8746 202.606 34.8252C202.444 27.5458 200.115 24.3881 195.261 24.4538C190.378 24.5198 187.025 28.3685 186.701 34.9216C186.373 41.5584 186.111 50.1404 185.283 57.3411C176.845 57.9148 177.18 55.9895 177.177 48.0711C177.172 37.4095 177.17 26.7478 177.167 16.0862C181.489 16.0862 181.529 16.0862 184.283 16.0862C185.783 16.0862 185.783 17.348 186.783 17.8411C187.538 18.2133 188.872 17.8737 189.865 17.348C198.343 12.8572 204.664 13.944 210.917 21.7694C212.794 24.4538 212.73 24.4538 212.794 30.6319Z" fill="#7A2E0B"/>
<path d="M177.167 16.0862C177.678 26.5837 177.172 37.4095 177.177 48.0711C177.18 55.9895 177.003 57.369 185.283 57.3411C182.783 57.4349 182.783 57.4349 176.153 58.196C176.153 43.6661 176.66 29.8761 177.167 16.0862Z" fill="#7A2E0B"/>
<path d="M158.783 16.099C160.869 16.0312 162.283 16.099 168.821 16.099C168.852 24.841 168.144 33.3559 168.492 41.4231C168.044 51.1715 162.582 57.5738 153.994 58.4153C142.184 59.5724 134.429 55.0567 133.127 44.4345C131.994 35.1886 132.283 25.7038 132.283 16.0992C135.352 16.0992 139.12 16.0898 143.123 16.0898C143.123 23.9118 143.124 31.6905 143.122 39.4692C143.121 44.0936 143.302 48.8409 151.283 48.8409C159.263 48.8409 158.936 42.4316 159.068 40.318C159.201 38.2043 158.922 24.3409 158.783 16.099Z" fill="#792D0A"/>
<path d="M168.492 41.4231C168.047 33.9151 168.783 24.841 168.821 16.099C168.879 18.341 168.765 20.6705 168.821 22.9705C168.962 28.744 168.657 35.0852 168.492 41.4231Z" fill="#792D0A"/>
<path d="M158.783 16.099C159.133 23.8045 159.817 31.7488 159.263 39.9202C158.964 32.2904 158.963 24.3409 158.783 16.099Z" fill="#792D0A"/>
<path d="M285.098 15.7067C289.783 17.3411 290.863 19.1914 294.487 21.464C291.283 24.3411 291.283 24.3411 288.254 27.3411C286.659 26.6478 282.847 24.518 280.283 23.8411C279.308 23.5838 277.148 23.2978 276.283 24.8411C275.416 26.5656 277.355 28.7864 278.294 29.387C281.505 31.4399 285.011 33.0265 288.254 35.0333C293.576 38.3267 295.095 43.1846 293.569 49.1298C292.055 55.024 287.735 57.6556 282.177 58.358C275.403 59.2142 269.319 57.6684 264.602 51.5165C266.454 49.4084 268.389 47.2043 270.149 45.201C273.783 47.8411 275.095 48.6244 278.283 49.3411C279.473 49.6086 282.741 49.3212 283.783 46.8411C284.783 44.4612 282.924 43.4797 281.843 42.6345C279.97 41.1712 277.658 40.2741 275.551 39.104C267.534 34.6541 264.577 29.3872 266.676 23.3362C269.069 16.4358 275.436 13.6734 285.098 15.7067Z" fill="#7A2E0D"/>
<path d="M429.588 23.2666C429.588 34.9185 429.588 45.9643 429.588 57.2249C425.824 57.2249 422.671 57.2249 419.182 57.2249C419.182 38.126 419.182 19.2577 419.182 0C422.432 0 425.58 0 429.588 0C429.588 7.52786 429.588 15.0942 429.588 23.2666Z" fill="#72A508"/>
<path d="M70.245 17.1885C70.4167 17.9385 70.5883 18.6885 70.8516 19.8394C74.3601 15.7378 78.1823 13.4858 83.8561 15.7512C82.9134 18.615 82.0661 21.1892 81.0851 24.1697C75.0742 23.2395 72.6722 26.6328 71.6478 32.8587C70.7844 39.3309 70.5167 45.1091 70.3891 50.8903C70.3286 53.6292 70.4232 56.7693 66.5425 55.7628C65.0791 55.3832 63.2823 52.691 63.2407 51.0133C62.9521 39.3814 62.0302 27.8799 62.0284 16.2409C63.7239 16.1733 66.4751 15.9647 68.7829 16.2409C69.869 16.3709 70.0511 16.3411 70.245 17.1885Z" fill="#792D0A"/>
<path d="M62.0284 16.2409C62.5581 27.7589 62.9521 39.3814 63.2407 51.0133C63.2823 52.691 65.0791 55.3832 66.5425 55.7628C70.4232 56.7693 70.3286 53.6292 70.3891 50.8903C70.5167 45.1091 70.7845 39.3309 71.3935 33.2175C71.7923 40.8959 71.7923 48.9082 71.7923 57.1617C68.3483 57.1617 65.3948 57.1617 62.0284 57.1617C62.0284 43.5752 62.0306 30.5429 62.0284 16.2409Z" fill="#792D0A"/>
<path d="M405.366 4.35083C407.182 3.08156 408.933 2.08395 410.783 1.84275C411.218 1.78608 412.51 4.28007 412.521 5.60792C412.647 20.9293 412.695 36.2536 412.456 51.5722C412.432 53.055 410.595 55.3909 409.167 55.7926C405.862 56.722 405.291 54.2631 405.301 51.4706C405.361 35.9468 405.334 20.4227 405.366 4.35083Z" fill="#6FA300"/>
<path d="M404.007 29.3286C404.007 19.2786 404.007 9.83487 404.007 0.0786133C407.413 0.0786133 410.353 0.0786133 413.75 0.0786133C413.75 18.8762 413.75 37.7264 413.75 56.9994C410.836 56.9994 407.745 56.9994 404.007 56.9994C404.007 47.9701 404.007 38.9525 404.007 29.3286ZM405.337 4.89863C405.334 20.4227 405.361 35.9468 405.301 51.4706C405.291 54.2631 405.862 56.722 409.167 55.7926C410.595 55.3909 412.432 53.055 412.456 51.5722C412.695 36.2536 412.647 20.9293 412.521 5.60792C412.51 4.28007 411.218 1.78608 410.783 1.84275C408.933 2.08395 407.182 3.08155 405.337 4.89863Z" fill="#6FA300"/>
</svg>
