<svg width="492" height="492" viewBox="0 0 492 492" fill="none" xmlns="http://www.w3.org/2000/svg">
<path d="M198.609 246.104L382.665 62.04C387.733 56.984 390.521 50.224 390.521 43.016C390.521 35.804 387.733 29.048 382.665 23.984L366.537 7.864C361.477 2.792 354.713 0 347.505 0C340.297 0 333.541 2.792 328.477 7.864L109.329 227.008C104.245 232.088 101.461 238.876 101.481 246.092C101.461 253.34 104.241 260.12 109.329 265.204L328.273 484.136C333.337 489.208 340.093 492 347.305 492C354.513 492 361.269 489.208 366.337 484.136L382.461 468.016C392.953 457.524 392.953 440.444 382.461 429.956L198.609 246.104Z" fill="#004A40"/>
</svg>
