<svg width="64" height="80" viewBox="0 0 64 80" fill="none" xmlns="http://www.w3.org/2000/svg">
<path d="M8.28208 79.5844C6.17736 79.5844 4.39583 78.8553 2.9375 77.3969C1.47917 75.9386 0.75 74.1571 0.75 72.0523V24.6167C0.75 22.512 1.47917 20.7305 2.9375 19.2721C4.39583 17.8138 6.17736 17.0846 8.28208 17.0846H16.375V16.043C16.375 11.7267 17.9001 8.04349 20.9503 4.99329C24.0005 1.94308 27.6836 0.417969 31.9999 0.417969C36.3161 0.417969 39.9993 1.94308 43.0495 4.99329C46.0997 8.04349 47.6248 11.7267 47.6248 16.043V17.0846H55.7177C57.8224 17.0846 59.604 17.8138 61.0623 19.2721C62.5206 20.7305 63.2498 22.512 63.2498 24.6167V72.0523C63.2498 74.1571 62.5206 75.9386 61.0623 77.3969C59.604 78.8553 57.8224 79.5844 55.7177 79.5844H8.28208ZM8.28208 73.3345H55.7177C56.0383 73.3345 56.3321 73.201 56.5993 72.9339C56.8664 72.6668 56.9999 72.3729 56.9999 72.0523V24.6167C56.9999 24.2962 56.8664 24.0023 56.5993 23.7352C56.3321 23.4681 56.0383 23.3345 55.7177 23.3345H47.6248V32.7096C47.6248 33.5964 47.3257 34.3389 46.7274 34.9371C46.1291 35.5354 45.3866 35.8345 44.4999 35.8345C43.6132 35.8345 42.8707 35.5354 42.2724 34.9371C41.6741 34.3389 41.375 33.5964 41.375 32.7096V23.3345H22.6248V32.7096C22.6248 33.5964 22.3257 34.3389 21.7274 34.9371C21.1291 35.5354 20.3866 35.8345 19.4999 35.8345C18.6132 35.8345 17.8707 35.5354 17.2724 34.9371C16.6741 34.3389 16.375 33.5964 16.375 32.7096V23.3345H8.28208C7.96153 23.3345 7.66767 23.4681 7.40052 23.7352C7.13344 24.0023 6.9999 24.2962 6.9999 24.6167V72.0523C6.9999 72.3729 7.13344 72.6668 7.40052 72.9339C7.66767 73.201 7.96153 73.3345 8.28208 73.3345ZM22.6248 17.0846H41.375V16.043C41.375 13.4307 40.4655 11.2152 38.6466 9.3963C36.8277 7.57735 34.6121 6.66787 31.9999 6.66787C29.3877 6.66787 27.1721 7.57735 25.3532 9.3963C23.5343 11.2152 22.6248 13.4307 22.6248 16.043V17.0846Z" fill="#FFFFEC"/>
</svg>
